<?xml version="1.0" standalone="no"?>
<!DOCTYPE svg PUBLIC "-//W3C//DTD SVG 20010904//EN"
		"http://www.w3.org/TR/2001/REC-SVG-20010904/DTD/svg10.dtd">
<svg version="1.0" xmlns="http://www.w3.org/2000/svg"
     width="50.000000pt" height="43.000000pt" viewBox="0 0 50.000000 43.000000"
     preserveAspectRatio="xMidYMid meet">

	<g transform="translate(0.000000,43.000000) scale(0.100000,-0.100000)"
	   fill="#FFFFFF" stroke="none">
		<path d="M157 412 c-10 -10 -17 -24 -17 -30 0 -8 -18 -12 -50 -12 -84 0 -90
-12 -90 -185 0 -199 -19 -185 250 -185 269 0 250 -14 250 185 0 173 -6 185
-90 185 -35 0 -50 4 -50 13 0 32 -35 47 -112 47 -60 0 -78 -4 -91 -18z m186
-32 c11 -28 15 -30 62 -30 28 0 56 -5 63 -12 17 -17 17 -289 0 -306 -17 -17
-419 -17 -436 0 -17 17 -17 289 0 306 7 7 35 12 63 12 47 0 51 2 62 30 11 30
11 30 93 30 82 0 82 0 93 -30z"/>
		<path d="M180 263 c-22 -20 -33 -40 -37 -70 -5 -39 -2 -46 30 -78 29 -29 42
-35 77 -35 35 0 48 6 77 35 32 32 35 39 30 78 -12 89 -112 128 -177 70z m105
3 c59 -25 74 -93 31 -143 -19 -22 -32 -28 -66 -28 -98 0 -126 131 -37 170 40
18 32 17 72 1z"/>
	</g>
</svg>