<?xml version="1.0" standalone="no"?>
<!DOCTYPE svg PUBLIC "-//W3C//DTD SVG 20010904//EN"
 "http://www.w3.org/TR/2001/REC-SVG-20010904/DTD/svg10.dtd">
<svg version="1.0" xmlns="http://www.w3.org/2000/svg"
 width="100.000000pt" height="63.000000pt" viewBox="0 0 100.000000 63.000000"
 preserveAspectRatio="xMidYMid meet">

<g transform="translate(0.000000,63.000000) scale(0.100000,-0.100000)"
fill="#000000" stroke="none">
<path d="M674 619 c-4 -7 52 -70 132 -150 l139 -139 -473 0 c-413 0 -472 -2
-472 -15 0 -13 59 -15 472 -15 l473 0 -140 -140 c-111 -111 -137 -142 -127
-152 10 -10 44 19 167 142 85 85 154 158 153 162 -5 14 -300 318 -308 318 -5
0 -12 -5 -16 -11z"/>
</g>
</svg>
