<?xml version="1.0" standalone="no"?>
<!DOCTYPE svg PUBLIC "-//W3C//DTD SVG 20010904//EN"
		"http://www.w3.org/TR/2001/REC-SVG-20010904/DTD/svg10.dtd">
<svg version="1.0" xmlns="http://www.w3.org/2000/svg"
     width="50.000000pt" height="50.000000pt" viewBox="0 0 50.000000 50.000000"
     preserveAspectRatio="xMidYMid meet">

	<g transform="translate(0.000000,50.000000) scale(0.100000,-0.100000)"
	   fill="#32444f" stroke="none">
		<path d="M177 486 c-67 -25 -111 -61 -142 -117 -64 -116 -27 -258 84 -326 92
-55 170 -55 262 0 37 23 60 47 81 83 50 91 48 174 -10 264 -53 84 -185 130
-275 96z m93 -167 c83 -49 97 -63 81 -83 -21 -26 -152 -98 -167 -92 -11 4 -14
28 -14 104 0 54 3 102 7 105 11 12 23 8 93 -34z"/>
	</g>
</svg>