<?xml version="1.0" encoding="utf-8"?>
<!-- Generator: Adobe Illustrator 26.0.3, SVG Export Plug-In . SVG Version: 6.00 Build 0)  -->
<svg version="1.1" id="Layer_1" xmlns="http://www.w3.org/2000/svg" xmlns:xlink="http://www.w3.org/1999/xlink" x="0px" y="0px"
	 viewBox="0 0 890.67 294.81" style="enable-background:new 0 0 890.67 294.81;" xml:space="preserve">
<style type="text/css">
	.st0{fill:#93257F;}
	.st1{fill:#C45B9F;}
	.st2{fill:#C04495;}
	.st3{fill:#B73995;}
	.st4{fill:#B81D8D;}
	.st5{fill:#5F6062;}
	.st6{fill:#B3B3B3;}
	.st7{fill:#FFFFFF;}
	.st8{fill:#1A1C1B;}
	.st9{fill:none;stroke:#B6218C;stroke-miterlimit:10;}
</style>
<g>
	<g>
		<path class="st0" d="M890.67,51.03L785.51,0L680.36,51.03v139.45h75.91c0,0,5.23,0,12.48,0l36.61,36.61l36.61-36.61h48.69V51.03z"
			/>
		<polygon class="st1" points="890.67,51.03 785.51,0 680.36,51.03 784.74,120.75 		"/>
		<polygon class="st2" points="890.67,190.48 784.74,120.75 890.67,51.03 		"/>
		<polygon class="st3" points="680.36,51.03 784.74,120.75 680.36,190.48 		"/>
		<path class="st3" d="M768.75,263.71l36.61-36.61l-36.61-36.61C768.75,190.48,768.75,263.67,768.75,263.71z"/>
	</g>
	<g>
		<path class="st4" d="M57.91,148.44c6.99,4.68,10.7,10.77,11.12,18.26c-0.71,15.04-8.75,23.01-24.11,23.9L0,190.55v-79.79h42.37
			c13.45,0.78,20.55,8.6,21.29,23.47C63.41,141.33,61.5,146.07,57.91,148.44z M16.02,142.75h22.36c6.42-0.11,9.72-3.42,9.9-9.95
			c-0.18-3.9-3.42-5.96-9.74-6.17H16.02V142.75z M16.02,178.09H42.1c7.49-0.11,11.32-3.96,11.5-11.55
			c-0.18-5.11-3.96-7.77-11.34-7.98H16.02V178.09z"/>
		<path class="st4" d="M97.8,179.08c-7.63-7.65-11.44-17.13-11.44-28.45c0-11.36,3.81-20.85,11.44-28.48
			c7.63-7.63,17.12-11.44,28.48-11.44c11.36,0,20.85,3.81,28.48,11.44c7.63,7.63,11.44,17.12,11.44,28.48
			c0,11.36-3.82,20.85-11.44,28.48c-7.63,7.63-17.12,11.44-28.48,11.44C114.92,190.55,105.43,186.72,97.8,179.08z M126.33,175.64
			c7.06,0,12.81-2.4,17.25-7.19c4.44-4.79,6.65-10.73,6.65-17.83c0-7.1-2.22-13.04-6.65-17.83c-4.44-4.79-10.22-7.19-17.35-7.19
			c-7.06,0-12.81,2.4-17.25,7.19c-4.44,4.79-6.65,10.73-6.65,17.83c0,7.1,2.22,13.04,6.65,17.83
			C113.42,173.25,119.2,175.64,126.33,175.64z"/>
		<path class="st4" d="M183.52,190.55V110.7h5.32l50.03,50.03V110.7h15.97v79.84h-5.86l-49.5-49.5v49.5H183.52z"/>
		<path class="st4" d="M278.18,175.64c7.13-0.32,10.7-4.21,10.7-11.66V110.7h16.02l-0.05,58.61c0,6.35-1.95,11.48-5.86,15.38
			c-3.9,3.9-9.01,5.85-15.33,5.85h-10.75v-14.9H278.18z"/>
		<path class="st4" d="M334.89,179.08c-7.63-7.65-11.44-17.13-11.44-28.45c0-11.36,3.81-20.85,11.44-28.48
			c7.63-7.63,17.12-11.44,28.48-11.44c11.36,0,20.85,3.81,28.48,11.44c7.63,7.63,11.44,17.12,11.44,28.48
			c0,11.36-3.81,20.85-11.44,28.48c-7.63,7.63-17.12,11.44-28.48,11.44C352.01,190.55,342.52,186.72,334.89,179.08z M363.42,175.64
			c7.06,0,12.81-2.4,17.25-7.19c4.44-4.79,6.65-10.73,6.65-17.83c0-7.1-2.22-13.04-6.65-17.83c-4.44-4.79-10.22-7.19-17.35-7.19
			c-7.06,0-12.81,2.4-17.25,7.19c-4.44,4.79-6.65,10.73-6.65,17.83c0,7.1,2.22,13.04,6.65,17.83
			C350.5,173.25,356.29,175.64,363.42,175.64z"/>
		<path class="st4" d="M435.35,110.7v46.31c0,6.03,1.77,10.47,5.32,13.31c3.55,2.84,7.98,4.26,13.31,4.26s9.76-1.42,13.31-4.26
			c3.55-2.84,5.32-7.27,5.32-13.31V110.7h15.97v50.57c0,8.16-3.28,15.08-9.85,20.76c-6.56,5.68-14.82,8.52-24.75,8.52
			c-9.94,0-18.19-2.84-24.75-8.52c-6.57-5.67-9.85-12.6-9.85-20.76V110.7H435.35z"/>
		<path class="st4" d="M559.34,155.74l19.91,34.81h-18.31l-19.11-33h-14.58v33h-15.97V110.7h34.81c18.63,0,27.94,7.66,27.94,22.99
			C574.03,145.23,569.13,152.58,559.34,155.74z M527.24,142.64h22.36c6.42-0.11,9.72-3.03,9.9-8.78c-0.18-5.25-3.42-7.98-9.74-8.2
			h-22.51V142.64z"/>
	</g>
	<path class="st5" d="M47.03,261.43l19.11,33.39H48.57l-18.33-31.67H16.24v31.67H0.93v-76.6h33.39c17.87,0,26.82,7.36,26.82,22.06
		C61.13,251.34,56.44,258.39,47.03,261.43z M16.24,248.87h21.44c6.17-0.11,9.34-2.91,9.5-8.44c-0.15-5.02-3.28-7.65-9.34-7.87h-21.6
		V248.87z"/>
	<path class="st5" d="M79.14,294.81v-76.53l56.26-0.07v14.3H94.45v16.35h30.68v14.24H94.45v17.41h40.86v14.3H79.14z"/>
	<path class="st5" d="M197.49,220.77c3.92,1.72,7.58,4.25,11,7.67l-10.23,10.2c-3.39-4.08-8.18-6.13-14.3-6.13
		s-10.03,1.45-11.72,4.34c-1.72,2.89-1.72,5.35,0,7.4c1.7,2.05,5.6,3.57,11.72,4.61c6.48,0.68,12.34,2.8,17.63,6.37
		c5.27,3.57,7.91,9.28,7.91,17.1c0,6.15-2.82,11.42-8.46,15.84c-5.62,4.43-12.19,6.63-19.68,6.63c-7.12,0-13.05-1.01-17.81-3.06
		c-4.78-2.05-8.86-4.76-12.25-8.18l10.2-10.2c3.39,4.08,9.19,6.46,17.36,7.14c6.81,0,11.04-1.43,12.74-4.34
		c1.67-2.89,1.67-5.77,0-8.68c-1.7-2.89-5.93-4.67-12.74-5.35c-6.13-0.68-11.75-2.56-16.86-5.62c-5.11-3.06-7.65-8.33-7.65-15.82
		c0-6.77,2.89-12.21,8.7-16.31c5.8-4.12,11.77-6.17,17.89-6.17C188.09,218.21,193.59,219.07,197.49,220.77z"/>
	<path class="st5" d="M723.98,220.77c3.92,1.72,7.58,4.25,11,7.67l-10.23,10.2c-3.39-4.08-8.18-6.13-14.3-6.13
		s-10.03,1.45-11.72,4.34c-1.72,2.89-1.72,5.35,0,7.4c1.7,2.05,5.6,3.57,11.72,4.61c6.48,0.68,12.34,2.8,17.63,6.37
		c5.27,3.57,7.91,9.28,7.91,17.1c0,6.15-2.82,11.42-8.46,15.84c-5.62,4.43-12.19,6.63-19.68,6.63c-7.12,0-13.05-1.01-17.81-3.06
		c-4.78-2.05-8.86-4.76-12.25-8.18l10.2-10.2c3.39,4.08,9.19,6.46,17.36,7.14c6.81,0,11.04-1.43,12.74-4.34
		c1.67-2.89,1.67-5.77,0-8.68c-1.7-2.89-5.93-4.67-12.74-5.35c-6.13-0.68-11.75-2.56-16.86-5.62c-5.11-3.06-7.65-8.33-7.65-15.82
		c0-6.77,2.89-12.21,8.7-16.31c5.8-4.12,11.77-6.17,17.89-6.17C714.57,218.21,720.08,219.07,723.98,220.77z"/>
	<path class="st5" d="M228.41,218.17h15.27v76.64h-15.27V218.17z"/>
	<path class="st5" d="M264.27,294.81v-76.64h29.51c23.84,0,35.74,12.78,35.74,38.34c0,25.54-11.9,38.3-35.74,38.3H264.27z
		 M293.77,279.54c13.6-0.02,20.41-7.71,20.43-23.03c-0.02-15.32-6.83-22.96-20.43-22.96h-14.19v45.99H293.77z"/>
	<path class="st5" d="M351,294.81v-76.53l56.26-0.07v14.3h-40.94v16.35h30.68v14.24h-30.68v17.41h40.86v14.3H351z"/>
	<path class="st5" d="M427.91,294.81v-76.6h5.11l48,48v-48h15.32v76.6h-5.62l-47.49-47.49v47.49H427.91z"/>
	<path class="st5" d="M524.67,283.82c-7.34-7.32-11-16.46-11-27.46c0.02-10.75,3.7-19.79,11.02-27.13
		c7.32-7.34,16.4-11.02,27.22-11.02c10.93,0,20.3,3.42,28.14,10.23l-10.23,11.17c-5.2-4.08-11.17-6.13-17.92-6.13
		c-6.88,0.04-12.41,2.18-16.62,6.43c-4.21,4.25-6.3,9.7-6.3,16.35c0.02,7.1,2.16,12.76,6.37,16.95c4.23,4.19,9.78,6.28,16.66,6.28
		c6.88,0,12.8-2.03,17.81-6.08l10.23,11.19c-7.8,6.81-17.19,10.2-28.14,10.2C541.09,294.77,532.01,291.11,524.67,283.82z"/>
	<path class="st5" d="M601.56,294.81v-76.53l56.26-0.07v14.3h-40.94v16.35h30.67v14.24h-30.67v17.41h40.86v14.3H601.56z"/>
	<rect x="88.41" y="206.86" class="st4" width="35.99" height="3.2"/>
</g>
</svg>
